# xmcd
#
# Track frame offsets: 
#        150
#        13341
#        24396
#        36859
#        47491
#        61032
#        72204
#        83496
#        98130
#        111056
#        123591
#        133893
#        147487
#        160941
#        174452
#
# Disc length: 2506 seconds
#
# Revision: 4
# Processed by: cddbd v1.5.2PL0 Copyright (c) Steve Scherf et al.
# Submitted via: ExactAudioCopy v1.1
#
DISCID=c709c80f
DTITLE=Various Artist - Country Jukebox - All Of Me [CD2]
DYEAR=2006
DGENRE=Country
TTITLE0=George Morgan - Candy Kisses
TTITLE1=Hank Snow (The Singing Ranger) and his Rainbow Ranch Boys - Le
TTITLE1=t Me Go, Lover!
TTITLE2=Jim Reeves - Am I Losing You
TTITLE3=Connie Smith - Once a Day
TTITLE4=Ray Price - The Other Woman (In My Life)
TTITLE5=Eddy Arnold - Somebody Like Me
TTITLE6=George Jones - I'll Share My World with You
TTITLE7=Jeannie Seely - Don't Touch Me
TTITLE8=Mickey Gilley - Room Full of Roses
TTITLE9=Johnny and June Carter Cash - Jackson
TTITLE10=Lynn Anderson - What a Man, My Man Is
TTITLE11=Ronnie Milsap - (I'm A) Stand by My Woman Man
TTITLE12=Billy Swan - I Can Help
TTITLE13=Dolly Parton - Here You Come Again
TTITLE14=Waylon Jennings - Come with Me
EXTD=
EXTT0=
EXTT1=
EXTT2=
EXTT3=
EXTT4=
EXTT5=
EXTT6=
EXTT7=
EXTT8=
EXTT9=
EXTT10=
EXTT11=
EXTT12=
EXTT13=
EXTT14=
PLAYORDER=
